<?xml version="1.0" encoding="utf-8"?>
<!-- Generator: Adobe Illustrator 26.0.3, SVG Export Plug-In . SVG Version: 6.00 Build 0)  -->
<svg version="1.0" id="katman_1" xmlns="http://www.w3.org/2000/svg" xmlns:xlink="http://www.w3.org/1999/xlink" x="0px" y="0px"
	 viewBox="0 0 600 450" style="enable-background:new 0 0 600 450;" xml:space="preserve">
<style type="text/css">
	.st0{fill:#EF7C46;}
	.st1{fill:#FFFFFF;}
</style>
<circle class="st0" cx="104.1" cy="225.4" r="62.6"/>
<g>
	<path class="st1" d="M51.2,223.8c0.8-17.2,15.3-30.5,32.5-29.8c14.9,0.7,26.8,11.6,29.3,25.7l-18.6,2.7c-1.1-5.5-5.9-9.7-11.8-10
		c-6.9-0.3-12.8,5.1-13.1,12c-0.3,6.9,5.1,12.8,12,13.1c3.1,0.1,6.4-1.2,8.7-3l9.6,15.4c-5.6,4.3-11.2,6.7-18.9,6.4
		C63.8,255.5,50.5,241,51.2,223.8z"/>
	<path class="st1" d="M113.5,224l0.4,2.4c0.5,5.6,4.7,10.4,10.5,11.3c6.9,1.1,13.3-3.5,14.4-10.4c1.1-6.9-3.5-13.3-10.4-14.4
		c-3.1-0.5-8.7,0.7-11.3,2.6l-7.8-16.4c6.1-3.6,14.2-6,21.8-4.7c17,2.8,28.5,18.8,25.8,35.8c-2.8,17-18.8,28.5-35.8,25.8
		c-14.7-2.4-25.3-14.7-26.1-28.9L113.5,224z"/>
</g>
<g>
	<path d="M187.5,225.1c0-20.2,11.3-32.1,27.6-32.1c16.3,0,27.5,11.9,27.5,32.1c0,20.3-11.3,32.7-27.5,32.7
		C198.8,257.8,187.5,245.4,187.5,225.1z M231.3,225.1c0-14-6.4-22.5-16.2-22.5c-9.8,0-16.3,8.5-16.3,22.5c0,14.1,6.4,23,16.3,23
		C224.9,248.1,231.3,239.1,231.3,225.1z"/>
	<path d="M258.8,260.5v14.7h-11v-65.5h9.1l0.8,5h0.4c3.9-3.3,9-6.1,14.1-6.1c11.7,0,18.4,9.4,18.4,23.9c0,16.1-9.7,25.3-20.1,25.3
		c-4.1,0-8.2-1.9-12-5.2L258.8,260.5z M268.3,248.7c6.2,0,11-5.5,11-16.2c0-9.4-3.1-14.9-10.1-14.9c-3.4,0-6.7,1.7-10.3,5.3v21.9
		C262.2,247.6,265.5,248.7,268.3,248.7z"/>
	<path d="M318.1,208.5c12.7,0,19.4,9.2,19.4,22.3c0,2.1-0.2,4-0.5,5.2h-29.8c1,8.5,6.3,13.3,13.9,13.3c4,0,7.5-1.2,10.9-3.4l3.7,6.9
		c-4.5,3-10.1,5.1-16.1,5.1c-13,0-23.1-9.1-23.1-24.6C296.5,217.9,307.1,208.5,318.1,208.5z M327.9,229c0-7.5-3.2-11.9-9.6-11.9
		c-5.5,0-10.3,4.1-11.3,11.9H327.9z"/>
	<path d="M345.8,209.7h9.1l0.8,6.3h0.4c4.2-4.1,9-7.5,15.4-7.5c10,0,14.4,6.8,14.4,18.6v29.4h-11v-28c0-7.7-2.2-10.6-7.4-10.6
		c-4.1,0-6.8,2-10.7,5.8v32.8h-11V209.7z"/>
	<path d="M414.1,194.1h11.1v53.1h25.9v9.4h-37V194.1z"/>
	<path d="M454.1,194.1h12.1l11.3,30.8l4.1,11.9h0.4l4.1-11.9l11-30.8h12.2v62.5H499v-28.6c0-5.8,0.9-14.1,1.4-19.9H500l-5.1,14.2
		l-10.8,28.4h-5.1l-10.8-28.4l-5-14.2h-0.4c0.5,5.7,1.3,14.1,1.3,19.9v28.6h-10.1L454.1,194.1L454.1,194.1z"/>
	<path d="M519.4,241c4.5,4.2,10.5,7.1,16.3,7.1c7,0,10.9-3.2,10.9-8c0-5.2-4-6.8-9.7-9.2l-8.5-3.7c-6.2-2.6-12.6-7.5-12.6-16.6
		c0-9.9,8.8-17.6,20.9-17.6c7.4,0,14.4,3.1,19.3,7.9l-5.7,7.1c-3.9-3.3-8.2-5.4-13.6-5.4c-5.9,0-9.7,2.8-9.7,7.4
		c0,4.9,4.8,6.7,9.9,8.8l8.4,3.5c7.5,3.2,12.6,7.8,12.6,16.9c0,10.1-8.4,18.5-22.5,18.5c-8.4,0-16.5-3.3-22.5-9.2L519.4,241z"/>
</g>
</svg>
