<?xml version="1.0" encoding="UTF-8"?>
<!DOCTYPE svg PUBLIC "-//W3C//DTD SVG 1.1//EN" "http://www.w3.org/Graphics/SVG/1.1/DTD/svg11.dtd">
<svg xmlns="http://www.w3.org/2000/svg" version="1.1" width="409px" height="123px" style="shape-rendering:geometricPrecision; text-rendering:geometricPrecision; image-rendering:optimizeQuality; fill-rule:evenodd; clip-rule:evenodd" xmlns:xlink="http://www.w3.org/1999/xlink">
<g><path style="opacity:0.103" fill="#f3f6fa" d="M 105.5,12.5 C 112.841,12.3337 120.174,12.5003 127.5,13C 130.941,14.776 134.108,16.9426 137,19.5C 136.423,25.176 134.256,30.3426 130.5,35C 126.286,33.7418 121.953,32.7418 117.5,32C 114.931,34.1877 113.597,37.021 113.5,40.5C 119.176,40.3339 124.843,40.5006 130.5,41C 131.833,47 131.833,53 130.5,59C 124.843,59.4994 119.176,59.6661 113.5,59.5C 113.667,77.8364 113.5,96.1697 113,114.5C 105.333,115.833 97.6667,115.833 90,114.5C 89.5001,96.1697 89.3334,77.8364 89.5,59.5C 82.0543,60.7243 79.3876,57.5576 81.5,50C 79.3876,42.4424 82.0543,39.2757 89.5,40.5C 88.6759,27.4647 94.0093,18.1314 105.5,12.5 Z"/></g>
<g><path style="opacity:0.046" fill="#fefffe" d="M 229.5,14.5 C 228.711,14.2172 228.044,13.7172 227.5,13C 228.816,12.4719 229.483,12.9719 229.5,14.5 Z"/></g>
<g><path style="opacity:0.031" fill="#fefffe" d="M 229.5,14.5 C 231.827,14.7529 233.827,14.0863 235.5,12.5C 237.672,12.6759 240.005,12.8425 242.5,13C 243.696,13.6543 243.696,14.1543 242.5,14.5C 237.259,13.2417 235.093,15.2417 236,20.5C 234.731,19.0953 234.231,17.4286 234.5,15.5C 232.585,15.7845 230.919,15.4511 229.5,14.5 Z"/></g>
<g><path style="opacity:0.993" fill="#226ab3" d="M 112.5,35.5 C 111.527,37.9479 111.194,40.6146 111.5,43.5C 117.167,43.5 122.833,43.5 128.5,43.5C 128.5,48.1667 128.5,52.8333 128.5,57.5C 122.833,57.5 117.167,57.5 111.5,57.5C 111.5,76.1667 111.5,94.8333 111.5,113.5C 104.833,113.5 98.1667,113.5 91.5,113.5C 91.5,94.8333 91.5,76.1667 91.5,57.5C 88.8333,57.5 86.1667,57.5 83.5,57.5C 83.5,52.8333 83.5,48.1667 83.5,43.5C 86.5,43.5 89.5,43.5 92.5,43.5C 92.5,39.8333 92.5,36.1667 92.5,32.5C 96.9046,17.4569 106.905,11.2902 122.5,14C 127.786,14.9726 132.12,17.4726 135.5,21.5C 133.333,25.8333 131.167,30.1667 129,34.5C 125.002,29.6423 120.169,28.4756 114.5,31C 113.418,32.3297 112.751,33.8297 112.5,35.5 Z"/></g>
<g><path style="opacity:0.101" fill="#f3f6fa" d="M 359.5,20.5 C 359.611,19.8826 359.944,19.3826 360.5,19C 367.167,18.3333 373.833,18.3333 380.5,19C 381,19.5 381.5,20 382,20.5C 382.5,27.1583 382.666,33.825 382.5,40.5C 387.844,40.334 393.177,40.5006 398.5,41C 399.833,46.6667 399.833,52.3333 398.5,58C 393.177,58.4994 387.844,58.666 382.5,58.5C 382.333,69.505 382.5,80.505 383,91.5C 383.936,93.7085 385.602,95.0418 388,95.5C 390.742,94.4296 393.242,92.9296 395.5,91C 396.5,90.3333 397.5,90.3333 398.5,91C 401.774,95.3808 404.107,100.214 405.5,105.5C 405.594,107.912 404.594,109.745 402.5,111C 387.471,119.771 373.971,117.938 362,105.5C 361.333,104.167 360.667,102.833 360,101.5C 358.551,87.2391 358.051,72.9058 358.5,58.5C 350.505,60.5052 347.505,57.5052 349.5,49.5C 347.505,41.4948 350.505,38.4948 358.5,40.5C 358.176,33.6457 358.509,26.979 359.5,20.5 Z"/></g>
<g><path style="opacity:0.038" fill="#fefffe" d="M 223.5,24.5 C 223.611,23.8826 223.944,23.3826 224.5,23C 226.5,22.3333 228.5,22.3333 230.5,23C 228.134,23.4396 225.801,23.9396 223.5,24.5 Z"/></g>
<g><path style="opacity:0.041" fill="#fefffe" d="M 244.5,22.5 C 247.722,22.1081 250.722,22.6081 253.5,24C 250.511,23.2923 247.511,23.459 244.5,24.5C 243.537,24.0302 243.537,23.3635 244.5,22.5 Z"/></g>
<g><path style="opacity:0.304" fill="#afc5e1" d="M 359.5,20.5 C 366.687,20.1755 373.687,20.5088 380.5,21.5C 373.833,21.5 367.167,21.5 360.5,21.5C 360.825,28.6866 360.491,35.6866 359.5,42.5C 359.5,35.1667 359.5,27.8333 359.5,20.5 Z"/></g>
<g><path style="opacity:0.994" fill="#216ab3" d="M 380.5,21.5 C 380.5,28.5 380.5,35.5 380.5,42.5C 386.167,42.5 391.833,42.5 397.5,42.5C 397.5,47.1667 397.5,51.8333 397.5,56.5C 391.833,56.5 386.167,56.5 380.5,56.5C 380.333,68.5046 380.5,80.5046 381,92.5C 386.074,98.983 391.407,98.983 397,92.5C 399.5,97 402,101.5 404.5,106C 393.766,115.62 382.1,116.953 369.5,110C 364.964,106.138 362.131,101.305 361,95.5C 360.5,82.5043 360.333,69.5043 360.5,56.5C 357.5,56.5 354.5,56.5 351.5,56.5C 351.5,51.8333 351.5,47.1667 351.5,42.5C 354.167,42.5 356.833,42.5 359.5,42.5C 360.491,35.6866 360.825,28.6866 360.5,21.5C 367.167,21.5 373.833,21.5 380.5,21.5 Z"/></g>
<g><path style="opacity:0.032" fill="#fefffe" d="M 223.5,24.5 C 222.592,26.8911 222.426,29.2244 223,31.5C 221.046,28.9936 221.213,26.6603 223.5,24.5 Z"/></g>
<g><path style="opacity:0.042" fill="#fefffe" d="M 232.5,25.5 C 234.484,32.3467 231.817,34.8467 224.5,33C 230.303,33.6944 232.97,31.1944 232.5,25.5 Z"/></g>
<g><path style="opacity:0.038" fill="#fefffe" d="M 244.5,36.5 C 242.589,36.4257 241.422,35.4257 241,33.5C 240.126,30.6213 240.46,27.9546 242,25.5C 240.85,29.5789 241.683,33.2456 244.5,36.5 Z"/></g>
<g><path style="opacity:0.037" fill="#fefffe" d="M 255.5,33.5 C 255.422,30.7482 255.255,28.0816 255,25.5C 256.743,28.1557 256.909,30.8223 255.5,33.5 Z"/></g>
<g><path style="opacity:0.038" fill="#fefffe" d="M 255.5,33.5 C 255.489,35.0174 254.823,36.1841 253.5,37C 250.304,37.8045 247.304,37.6378 244.5,36.5C 248.753,37.1925 252.419,36.1925 255.5,33.5 Z"/></g>
<g><path style="opacity:0.098" fill="#fef7f2" d="M 231.5,34.5 C 238.78,33.3869 243.28,36.3869 245,43.5C 252.69,41.1701 256.357,44.1701 256,52.5C 267.858,68.3324 268.524,84.6657 258,101.5C 246.628,115.31 232.128,120.143 214.5,116C 193.728,107.97 184.561,92.8032 187,70.5C 190.272,56.7261 198.438,47.0594 211.5,41.5C 215.548,34.3601 220.548,33.6934 226.5,39.5C 228.521,38.1455 230.188,36.4788 231.5,34.5 Z M 221.5,60.5 C 235.661,59.8319 242.828,66.4986 243,80.5C 238.235,93.6454 229.402,97.4787 216.5,92C 205.852,82.4269 205.852,72.7602 216.5,63C 218.315,62.2432 219.981,61.4098 221.5,60.5 Z"/></g>
<g><path style="opacity:0.085" fill="#e7eef6" d="M 182.5,60.5 C 179.5,60.5 176.5,60.5 173.5,60.5C 175.948,59.5269 178.615,59.1936 181.5,59.5C 181.5,53.5 181.5,47.5 181.5,41.5C 173.612,41.7772 166.945,44.7772 161.5,50.5C 160.52,47.9135 160.187,45.2469 160.5,42.5C 153.833,42.5 147.167,42.5 140.5,42.5C 140.5,66.1667 140.5,89.8333 140.5,113.5C 139.502,89.6725 139.169,65.6725 139.5,41.5C 146.655,40.3448 153.988,40.1782 161.5,41C 162.249,42.7337 162.749,44.567 163,46.5C 168.549,41.4296 175.049,38.9296 182.5,39C 183.827,46.2652 183.827,53.4319 182.5,60.5 Z"/></g>
<g><path style="opacity:0.99" fill="#f48e23" d="M 262.5,82.5 C 263.177,76.0158 260.51,71.5158 254.5,69C 254.833,68.6667 255.167,68.3333 255.5,68C 254.151,67.2276 253.318,66.0609 253,64.5C 252.692,65.3081 252.192,65.9747 251.5,66.5C 249.534,64.0322 247.368,61.6989 245,59.5C 244.667,59.8333 244.333,60.1667 244,60.5C 240.454,57.9548 237.621,54.7881 235.5,51C 234.551,50.3828 233.718,50.5494 233,51.5C 229.823,49.4891 227.323,46.8224 225.5,43.5C 224.914,43.7093 224.414,44.0426 224,44.5C 222.442,42.6411 220.609,41.1411 218.5,40C 219.416,39.7216 220.082,39.2216 220.5,38.5C 222.235,40.2351 224.235,41.5684 226.5,42.5C 228.801,41.1433 230.801,39.3099 232.5,37C 238.744,35.9032 242.078,38.5699 242.5,45C 244.713,45.6256 246.88,45.4589 249,44.5C 251.892,45.8204 253.225,48.1537 253,51.5C 259.139,59.2795 262.639,68.1128 263.5,78C 263.492,79.7067 263.158,81.2067 262.5,82.5 Z"/></g>
<g><path style="opacity:0.09" fill="#edf2f8" d="M 30.5,39.5 C 47.0593,36.4237 60.8927,41.0904 72,53.5C 77.3662,63.8101 78.8662,74.6434 76.5,86C 59.8233,86.1671 43.1567,86.6671 26.5,87.5C 29.7189,93.2609 34.7189,96.2609 41.5,96.5C 47.2313,95.9664 52.2313,93.7998 56.5,90C 57.8333,89.3333 59.1667,89.3333 60.5,90C 64.6463,93.9805 68.313,98.3138 71.5,103C 66.0957,110.377 58.7623,114.71 49.5,116C 28.6935,119.513 13.5268,112.013 4,93.5C -3.33029,67.1632 5.50304,49.1632 30.5,39.5 Z M 36.5,59.5 C 43.7472,58.5697 49.0805,61.2364 52.5,67.5C 43.8525,68.6652 35.1858,68.8319 26.5,68C 28.8965,63.9818 32.2298,61.1485 36.5,59.5 Z"/></g>
<g><path style="opacity:0.984" fill="#f18521" d="M 220.5,38.5 C 220.082,39.2216 219.416,39.7216 218.5,40C 220.609,41.1411 222.442,42.6411 224,44.5C 224.414,44.0426 224.914,43.7093 225.5,43.5C 227.323,46.8224 229.823,49.4891 233,51.5C 233.718,50.5494 234.551,50.3828 235.5,51C 237.621,54.7881 240.454,57.9548 244,60.5C 244.333,60.1667 244.667,59.8333 245,59.5C 247.368,61.6989 249.534,64.0322 251.5,66.5C 252.192,65.9747 252.692,65.3081 253,64.5C 253.318,66.0609 254.151,67.2276 255.5,68C 255.167,68.3333 254.833,68.6667 254.5,69C 260.51,71.5158 263.177,76.0158 262.5,82.5C 262.25,88.5931 260.25,93.9264 256.5,98.5C 256.414,97.5041 256.748,96.6708 257.5,96C 252.952,92.6121 248.286,89.4454 243.5,86.5C 248.06,70.6129 242.226,61.2795 226,58.5C 221.844,58.3874 218.011,59.3874 214.5,61.5C 209.905,58.1901 205.239,54.8567 200.5,51.5C 204.224,47.3012 208.891,44.6346 214.5,43.5C 214.651,39.686 216.651,38.0193 220.5,38.5 Z"/></g>
<g><path style="opacity:0.114" fill="#f4f7fb" d="M 305.5,39.5 C 322.149,36.4064 333.982,42.4064 341,57.5C 342.102,67.786 342.602,78.1194 342.5,88.5C 342.493,97.4086 342.16,106.242 341.5,115C 333.92,115.813 326.42,115.647 319,114.5C 318.667,98.8333 318.333,83.1667 318,67.5C 313.023,56.7658 306.356,55.7658 298,64.5C 297.027,66.3921 296.36,68.3921 296,70.5C 295.667,85.1667 295.333,99.8333 295,114.5C 287.333,115.833 279.667,115.833 272,114.5C 271.333,90.1667 271.333,65.8333 272,41.5C 279.42,40.3534 286.92,40.1868 294.5,41C 295.227,42.3988 295.727,43.8988 296,45.5C 298.843,42.8373 302.009,40.8373 305.5,39.5 Z"/></g>
<g><path style="opacity:0.099" fill="#f9fbfd" d="M 139.5,41.5 C 139.169,65.6725 139.502,89.6725 140.5,113.5C 147.167,113.5 153.833,113.5 160.5,113.5C 160.333,100.163 160.5,86.8292 161,73.5C 162.685,66.6501 166.852,62.3168 173.5,60.5C 176.5,60.5 179.5,60.5 182.5,60.5C 173.519,60.0782 167.353,64.0782 164,72.5C 162.719,86.4316 162.052,100.432 162,114.5C 154.58,115.647 147.08,115.813 139.5,115C 138.169,90.4023 138.169,65.9023 139.5,41.5 Z"/></g>
<g><path style="opacity:0.991" fill="#216ab3" d="M 30.5,41.5 C 62.2551,38.5921 77.2551,52.9254 75.5,84.5C 58.1539,84.1672 40.8205,84.5005 23.5,85.5C 27.6279,95.9013 35.2945,100.068 46.5,98C 51.1273,96.1798 55.4607,94.1798 59.5,92C 62.464,95.9658 65.7974,99.6325 69.5,103C 59.0629,112.696 46.7296,116.362 32.5,114C 9.07668,106.675 -0.0899883,90.842 5,66.5C 9.41749,53.915 17.9175,45.5817 30.5,41.5 Z M 36.5,59.5 C 32.2298,61.1485 28.8965,63.9818 26.5,68C 35.1858,68.8319 43.8525,68.6652 52.5,67.5C 49.0805,61.2364 43.7472,58.5697 36.5,59.5 Z"/></g>
<g><path style="opacity:0.498" fill="#83a7d1" d="M 92.5,32.5 C 92.5,36.1667 92.5,39.8333 92.5,43.5C 89.5,43.5 86.5,43.5 83.5,43.5C 85.9479,42.5269 88.6146,42.1936 91.5,42.5C 91.1872,38.9581 91.5206,35.6248 92.5,32.5 Z"/></g>
<g><path style="opacity:0.994" fill="#206ab3" d="M 306.5,41.5 C 324.118,39.2147 335.284,46.548 340,63.5C 340.5,80.1633 340.667,96.83 340.5,113.5C 333.833,113.5 327.167,113.5 320.5,113.5C 320.667,97.4965 320.5,81.4965 320,65.5C 313.095,54.2469 305.095,53.5802 296,63.5C 295.138,65.087 294.471,66.7536 294,68.5C 293.5,83.4963 293.333,98.4963 293.5,113.5C 286.833,113.5 280.167,113.5 273.5,113.5C 273.5,89.8333 273.5,66.1667 273.5,42.5C 280.167,42.5 286.833,42.5 293.5,42.5C 293.192,44.924 293.526,47.2573 294.5,49.5C 298.255,46.3016 302.255,43.6349 306.5,41.5 Z"/></g>
<g><path style="opacity:0.994" fill="#216ab3" d="M 173.5,60.5 C 166.852,62.3168 162.685,66.6501 161,73.5C 160.5,86.8292 160.333,100.163 160.5,113.5C 153.833,113.5 147.167,113.5 140.5,113.5C 140.5,89.8333 140.5,66.1667 140.5,42.5C 147.167,42.5 153.833,42.5 160.5,42.5C 160.187,45.2469 160.52,47.9135 161.5,50.5C 166.945,44.7772 173.612,41.7772 181.5,41.5C 181.5,47.5 181.5,53.5 181.5,59.5C 178.615,59.1936 175.948,59.5269 173.5,60.5 Z"/></g>
<g><path style="opacity:0.675" fill="#6e99ca" d="M 112.5,35.5 C 112.5,37.8333 112.5,40.1667 112.5,42.5C 118.167,42.5 123.833,42.5 129.5,42.5C 129.821,47.6946 129.487,52.6946 128.5,57.5C 128.5,52.8333 128.5,48.1667 128.5,43.5C 122.833,43.5 117.167,43.5 111.5,43.5C 111.194,40.6146 111.527,37.9479 112.5,35.5 Z"/></g>
<g><path style="opacity:0.128" fill="#f6f8fb" d="M 55.5,70.5 C 44.7792,71.1419 34.4459,70.4753 24.5,68.5C 27.3255,61.4045 32.6589,57.7378 40.5,57.5C 48.9285,57.9312 53.9285,62.2645 55.5,70.5 Z M 36.5,59.5 C 32.2298,61.1485 28.8965,63.9818 26.5,68C 35.1858,68.8319 43.8525,68.6652 52.5,67.5C 49.0805,61.2364 43.7472,58.5697 36.5,59.5 Z"/></g>
<g><path style="opacity:0.108" fill="#fef6f0" d="M 243.5,86.5 C 237.705,95.7117 229.371,98.8784 218.5,96C 208.62,90.7383 204.787,82.5716 207,71.5C 208.803,67.5225 211.303,64.1892 214.5,61.5C 218.011,59.3874 221.844,58.3874 226,58.5C 242.226,61.2795 248.06,70.6129 243.5,86.5 Z M 221.5,60.5 C 219.981,61.4098 218.315,62.2432 216.5,63C 205.852,72.7602 205.852,82.4269 216.5,92C 229.402,97.4787 238.235,93.6454 243,80.5C 242.828,66.4986 235.661,59.8319 221.5,60.5 Z"/></g>
<g><path style="opacity:0.979" fill="#ea7125" d="M 200.5,51.5 C 205.239,54.8567 209.905,58.1901 214.5,61.5C 211.303,64.1892 208.803,67.5225 207,71.5C 204.787,82.5716 208.62,90.7383 218.5,96C 229.371,98.8784 237.705,95.7117 243.5,86.5C 248.286,89.4454 252.952,92.6121 257.5,96C 256.748,96.6708 256.414,97.5041 256.5,98.5C 251.149,107.021 243.482,112.354 233.5,114.5C 224.738,106.583 215.738,98.75 206.5,91C 201.235,88.0653 196.568,84.3986 192.5,80C 191.552,79.5172 190.552,79.3505 189.5,79.5C 189.5,80.5 189.5,81.5 189.5,82.5C 187.727,70.3523 191.394,60.0189 200.5,51.5 Z"/></g>
<g><path style="opacity:0.595" fill="#5f91c6" d="M 24.5,68.5 C 34.4459,70.4753 44.7792,71.1419 55.5,70.5C 45.0131,71.4944 34.3464,71.8278 23.5,71.5C 23.2627,70.209 23.596,69.209 24.5,68.5 Z"/></g>
<g><path style="opacity:0.983" fill="#e66625" d="M 233.5,114.5 C 213.733,117.2 199.566,109.533 191,91.5C 190.047,88.5682 189.547,85.5682 189.5,82.5C 189.5,81.5 189.5,80.5 189.5,79.5C 190.552,79.3505 191.552,79.5172 192.5,80C 196.568,84.3986 201.235,88.0653 206.5,91C 215.738,98.75 224.738,106.583 233.5,114.5 Z"/></g>
</svg>
