<?xml version="1.0" encoding="UTF-8"?>
<!DOCTYPE svg PUBLIC "-//W3C//DTD SVG 1.1//EN" "http://www.w3.org/Graphics/SVG/1.1/DTD/svg11.dtd">
<svg xmlns="http://www.w3.org/2000/svg" version="1.1" width="1280px" height="326px" style="shape-rendering:geometricPrecision; text-rendering:geometricPrecision; image-rendering:optimizeQuality; fill-rule:evenodd; clip-rule:evenodd" xmlns:xlink="http://www.w3.org/1999/xlink">
<g><path style="opacity:0.976" fill="#f9810a" d="M 929.5,-0.5 C 948.5,-0.5 967.5,-0.5 986.5,-0.5C 986.5,107.167 986.5,214.833 986.5,322.5C 967.5,322.5 948.5,322.5 929.5,322.5C 929.666,316.824 929.499,311.157 929,305.5C 923.927,311.232 917.76,315.399 910.5,318C 901.91,321.258 893.243,323.758 884.5,325.5C 875.833,325.5 867.167,325.5 858.5,325.5C 816.034,316.531 790.868,290.531 783,247.5C 777.292,214.683 784.292,185.016 804,158.5C 828.378,133.265 857.878,124.099 892.5,131C 907.274,133.962 919.441,141.129 929,152.5C 929.5,101.501 929.667,50.5011 929.5,-0.5 Z M 876.5,172.5 C 888.738,170.809 899.738,173.642 909.5,181C 919.394,188.63 925.894,198.463 929,210.5C 938.7,245.599 926.867,269.433 893.5,282C 867.95,284.963 851.117,274.129 843,249.5C 836.174,225.736 840.174,204.07 855,184.5C 861.319,178.762 868.486,174.762 876.5,172.5 Z"/></g>
<g><path style="opacity:0.977" fill="#f9810a" d="M 1002.5,-0.5 C 1021.83,-0.5 1041.17,-0.5 1060.5,-0.5C 1060.5,107.167 1060.5,214.833 1060.5,322.5C 1041.17,322.5 1021.83,322.5 1002.5,322.5C 1002.5,214.833 1002.5,107.167 1002.5,-0.5 Z"/></g>
<g><path style="opacity:0.901" fill="#2f2f2f" d="M 204.5,140.5 C 201.642,146.204 198.142,151.537 194,156.5C 186.572,164.433 178.739,171.766 170.5,178.5C 158.329,186.58 144.995,191.914 130.5,194.5C 128.052,193.527 125.385,193.194 122.5,193.5C 110.421,193.83 98.4209,193.164 86.5,191.5C 84.7085,191.634 83.0418,191.301 81.5,190.5C 78.4954,188.723 75.1621,187.723 71.5,187.5C 71.1667,187.5 70.8333,187.5 70.5,187.5C 69.7905,176.514 69.4572,165.514 69.5,154.5C 50.1817,153.623 30.8483,153.289 11.5,153.5C 10.4862,167.819 10.3195,182.152 11,196.5C 13.9057,210.03 15.9057,223.696 17,237.5C 17.8652,249.543 17.5318,261.543 16,273.5C 8.25616,258.936 3.75616,243.436 2.5,227C 2.89162,219.698 4.05828,212.531 6,205.5C 6.20793,188.136 6.70793,170.802 7.5,153.5C 4.72116,153.721 2.05449,153.388 -0.5,152.5C -0.5,151.167 -0.5,149.833 -0.5,148.5C 50.0741,117.139 104.741,96.3053 163.5,86C 188.428,81.9258 213.428,78.4258 238.5,75.5C 238.756,77.7925 238.423,79.9592 237.5,82C 219.5,95 201.5,108 183.5,121C 190.954,127.052 197.954,133.552 204.5,140.5 Z"/></g>
<g><path style="opacity:0.975" fill="#f98109" d="M 493.5,325.5 C 475.5,325.5 457.5,325.5 439.5,325.5C 384.547,306.987 360.381,268.653 367,210.5C 375.143,166.023 401.31,138.856 445.5,129C 486.549,121.791 520.716,133.624 548,164.5C 566,190.491 572,219.157 566,250.5C 556.533,289.799 532.366,314.799 493.5,325.5 Z M 458.5,176.5 C 488.127,174.95 504.96,188.95 509,218.5C 511.34,234.804 508.007,249.804 499,263.5C 488.228,277.742 474.061,282.909 456.5,279C 437.761,272.07 427.261,258.57 425,238.5C 421.609,216.673 427.776,198.173 443.5,183C 448.29,180.133 453.29,177.967 458.5,176.5 Z"/></g>
<g><path style="opacity:0.975" fill="#f98109" d="M 700.5,325.5 C 682.833,325.5 665.167,325.5 647.5,325.5C 608.669,314.833 584.502,289.833 575,250.5C 567.698,212.838 577.198,180.338 603.5,153C 633.267,128.71 666.934,121.377 704.5,131C 750.566,146.753 774.232,179.086 775.5,228C 773.519,278.453 748.519,310.953 700.5,325.5 Z M 665.5,176.5 C 694.208,174.697 711.041,188.031 716,216.5C 719.609,238.673 713.442,257.506 697.5,273C 681.823,282.997 666.157,282.997 650.5,273C 639.436,263.373 633.269,251.206 632,236.5C 629.463,216.111 635.296,198.611 649.5,184C 654.542,180.643 659.876,178.143 665.5,176.5 Z"/></g>
<g><path style="opacity:0.974" fill="#f98109" d="M 1279.5,230.5 C 1279.5,235.833 1279.5,241.167 1279.5,246.5C 1229.17,246.333 1178.83,246.5 1128.5,247C 1141.31,281.736 1165.31,293.403 1200.5,282C 1208.97,278.698 1214.97,272.864 1218.5,264.5C 1238.82,263.5 1259.16,263.167 1279.5,263.5C 1279.5,264.833 1279.5,266.167 1279.5,267.5C 1265.69,297.633 1242.69,316.966 1210.5,325.5C 1187.83,325.5 1165.17,325.5 1142.5,325.5C 1089.26,307.428 1065.43,270.094 1071,213.5C 1075.65,176.855 1094.82,151.021 1128.5,136C 1158.84,124.754 1189.18,124.754 1219.5,136C 1247.14,149.411 1265.3,170.911 1274,200.5C 1276.39,210.542 1278.23,220.542 1279.5,230.5 Z M 1171.5,167.5 C 1198.45,168.449 1214.78,182.116 1220.5,208.5C 1190.5,208.667 1160.5,208.5 1130.5,208C 1136.2,186.127 1149.87,172.627 1171.5,167.5 Z"/></g>
<g><path style="opacity:0.976" fill="#f8800a" d="M 170.5,178.5 C 178.739,171.766 186.572,164.433 194,156.5C 198.142,151.537 201.642,146.204 204.5,140.5C 208.086,142.58 211.253,145.246 214,148.5C 221.095,140.361 229.928,134.861 240.5,132C 266.218,126.335 291.551,127.668 316.5,136C 340.537,146.373 354.37,164.54 358,190.5C 358.5,234.832 358.667,279.165 358.5,323.5C 339.167,323.5 319.833,323.5 300.5,323.5C 300.967,281.133 300.467,238.799 299,196.5C 295.493,182.156 286.326,175.156 271.5,175.5C 255.674,175.824 246.507,183.824 244,199.5C 243.5,240.832 243.333,282.165 243.5,323.5C 223.833,323.5 204.167,323.5 184.5,323.5C 184.667,282.165 184.5,240.832 184,199.5C 182.996,190.139 178.496,183.139 170.5,178.5 Z"/></g>
<g><path style="opacity:0.957" fill="#7e4f23" d="M 71.5,187.5 C 75.1621,187.723 78.4954,188.723 81.5,190.5C 77.8379,190.277 74.5046,189.277 71.5,187.5 Z"/></g>
<g><path style="opacity:0.977" fill="#f8810a" d="M 70.5,187.5 C 70.8333,187.5 71.1667,187.5 71.5,187.5C 74.5046,189.277 77.8379,190.277 81.5,190.5C 83.0418,191.301 84.7085,191.634 86.5,191.5C 89.9032,192.925 93.5698,193.758 97.5,194C 106.01,194.823 114.344,194.657 122.5,193.5C 125.385,193.194 128.052,193.527 130.5,194.5C 129.71,195.609 129.21,196.942 129,198.5C 128.5,240.165 128.333,281.832 128.5,323.5C 108.833,323.5 89.1667,323.5 69.5,323.5C 69.2084,278.153 69.5418,232.82 70.5,187.5 Z"/></g>
<g><path style="opacity:0.832" fill="#6a4725" d="M 86.5,191.5 C 98.4209,193.164 110.421,193.83 122.5,193.5C 114.344,194.657 106.01,194.823 97.5,194C 93.5698,193.758 89.9032,192.925 86.5,191.5 Z"/></g>
</svg>
